<svg width="45" height="23" viewBox="0 0 45 23" fill="none" xmlns="http://www.w3.org/2000/svg">
<path d="M14 2H8.75C8.45163 2 8.16548 2.11853 7.9545 2.3295C7.74353 2.54048 7.625 2.82663 7.625 3.125V19.625C7.625 19.7727 7.6541 19.919 7.71064 20.0555C7.76717 20.192 7.85004 20.316 7.9545 20.4205C8.05897 20.525 8.18299 20.6078 8.31948 20.6644C8.45597 20.7209 8.60226 20.75 8.75 20.75H14C14.1477 20.75 14.294 20.7209 14.4305 20.6644C14.567 20.6078 14.691 20.525 14.7955 20.4205C14.9 20.316 14.9828 20.192 15.0394 20.0555C15.0959 19.919 15.125 19.7727 15.125 19.625V3.125C15.125 2.82663 15.0065 2.54048 14.7955 2.3295C14.5845 2.11853 14.2984 2 14 2V2ZM36.5 2H31.25C30.9516 2 30.6655 2.11853 30.4545 2.3295C30.2435 2.54048 30.125 2.82663 30.125 3.125V19.625C30.125 19.7727 30.1541 19.919 30.2106 20.0555C30.2672 20.192 30.35 20.316 30.4545 20.4205C30.559 20.525 30.683 20.6078 30.8195 20.6644C30.956 20.7209 31.1023 20.75 31.25 20.75H36.5C36.6477 20.75 36.794 20.7209 36.9305 20.6644C37.067 20.6078 37.191 20.525 37.2955 20.4205C37.4 20.316 37.4828 20.192 37.5394 20.0555C37.5959 19.919 37.625 19.7727 37.625 19.625V3.125C37.625 2.82663 37.5065 2.54048 37.2955 2.3295C37.0845 2.11853 36.7984 2 36.5 2V2Z" stroke="#AAD922" stroke-width="2.8125" stroke-linecap="round" stroke-linejoin="round"/>
<path d="M15.125 11.375H30.125M2 15.875V6.875C2 6.57663 2.11853 6.29048 2.3295 6.0795C2.54048 5.86853 2.82663 5.75 3.125 5.75H6.5C6.79837 5.75 7.08452 5.86853 7.2955 6.0795C7.50647 6.29048 7.625 6.57663 7.625 6.875V15.875C7.625 16.1734 7.50647 16.4595 7.2955 16.6705C7.08452 16.8815 6.79837 17 6.5 17H3.125C2.82663 17 2.54048 16.8815 2.3295 16.6705C2.11853 16.4595 2 16.1734 2 15.875V15.875ZM43.25 15.875V6.875C43.25 6.57663 43.1315 6.29048 42.9205 6.0795C42.7095 5.86853 42.4234 5.75 42.125 5.75H38.75C38.4516 5.75 38.1655 5.86853 37.9545 6.0795C37.7435 6.29048 37.625 6.57663 37.625 6.875V15.875C37.625 16.1734 37.7435 16.4595 37.9545 16.6705C38.1655 16.8815 38.4516 17 38.75 17H42.125C42.4234 17 42.7095 16.8815 42.9205 16.6705C43.1315 16.4595 43.25 16.1734 43.25 15.875V15.875Z" stroke="#AAD922" stroke-width="2.8125" stroke-linecap="round" stroke-linejoin="round"/>
</svg>
